<svg xmlns="http://www.w3.org/2000/svg" width="300.85" height="302.435" viewBox="0 0 300.85 302.435">
  <g id="Eggplant_MASTER_Logo_RGB" data-name="Eggplant MASTER Logo RGB" transform="translate(0 -0.005)">
    <path id="Path_668" data-name="Path 668" d="M9.59,256.58c1.35-4.79,5.4-7.19,10.34-7.19,5.25,0,8.99,2.4,9.59,7.19Zm28.7,7.57c1.42-15.21-6.29-22.86-18.66-22.86C7.64,241.29,0,249.38,0,260.62c0,11.84,7.57,19.71,20.31,19.71,5.62,0,11.99-1.95,15.89-6l-5.85-5.77c-2.1,2.17-6.52,3.45-9.89,3.45-6.44,0-10.42-3.3-11.02-7.87H38.29Zm64.39-14.61c5.25,0,9.59,4.05,9.59,10.42s-4.35,10.27-9.59,10.27c-5.32,0-9.67-3.82-9.67-10.27S97.36,249.54,102.68,249.54Zm8.47-6.22a14.745,14.745,0,0,0-8.47-2.1c-10.34,0-18.73,7.19-18.73,18.73s7.19,18.58,18.73,18.58c4.57,0,9.37,2.32,9.37,7.42s-4.12,7.94-9.37,7.94-9.67-3.15-9.67-7.94H83.94c0,9.97,8.02,16.49,18.73,16.49s18.51-6.29,18.51-16.49c0-4.72-1.5-9.14-7.64-12.21,6.07-2.77,7.79-9.22,7.79-13.79a15.728,15.728,0,0,0-3.9-10.94l4.12-5.25-6.74-5.1Zm23.92,51.48V275.02c2.62,4.05,8.39,5.25,12.29,5.25,11.84,0,18.66-8.54,18.66-19.33,0-10.87-7.57-19.33-18.96-19.33a14.677,14.677,0,0,0-11.99,5.92l-.6-5.1h-8.54v52.38h9.14v-.01Zm11.32-23.38a10.241,10.241,0,0,1-10.49-10.49c0-5.77,3.9-10.49,10.49-10.49s10.49,4.72,10.49,10.49A10.241,10.241,0,0,1,146.39,271.42Zm24.17-44.44v52.38h9.07V226.98h-9.07Zm33.72,22.71c14.39,0,14.39,22.41,0,22.41-6.07,0-10.94-4.2-10.94-11.24S198.21,249.69,204.28,249.69Zm10.95-2.18c-2.1-3.67-6.82-5.97-11.77-6-10.79-.05-19.26,6.59-19.26,19.33,0,12.96,8.09,19.74,19.03,19.63,4.12-.04,9.89-2.17,11.99-6.52l.45,5.4h8.62V242.41h-8.77Zm50.44,31.85V259.95c0-11.61-6.97-18.13-15.66-18.13-4.65,0-8.39,1.87-12.14,5.54l-.6-5.02H229.1v37.02h9.07V260.48c0-5.62,3.82-10.34,9.44-10.34,5.84,0,8.92,4.27,8.92,9.89v19.33h9.14ZM69.91,243.32a14.764,14.764,0,0,0-8.47-2.1c-10.34,0-18.73,7.19-18.73,18.73s7.19,18.58,18.73,18.58c4.57,0,9.37,2.32,9.37,7.42s-4.12,7.94-9.37,7.94-9.67-3.15-9.67-7.94H42.7c0,9.97,8.02,16.49,18.73,16.49s18.51-6.29,18.51-16.49c0-4.72-1.5-9.14-7.64-12.21,6.07-2.77,7.79-9.22,7.79-13.79a15.728,15.728,0,0,0-3.9-10.94l4.12-5.25-6.74-5.1Zm-8.47,6.22c5.25,0,9.59,4.05,9.59,10.42s-4.35,10.27-9.59,10.27c-5.32,0-9.67-3.82-9.67-10.27S56.12,249.54,61.44,249.54ZM272.2,232.98v9.52h-6.89v7.87h6.89v15.96c0,9.21,5.25,13.77,13.26,13.49a20.919,20.919,0,0,0,7.57-1.57l-2.55-7.79a10.518,10.518,0,0,1-4.42,1.12c-2.85,0-4.79-1.72-4.79-5.25V250.37h10.27V242.5H281.35V232.01Z" fill="#fff"/>
    <path id="Path_669" data-name="Path 669" d="M131.38,24.9a61.9,61.9,0,0,1,22.39,3.98c9.85,3.73,18.62,10.07,23.91,19.32a6.842,6.842,0,0,1,.39,6.63c-1.95,3.83-6.45,4.04-10.17,3.69a72.073,72.073,0,0,1-9.98-1.83c-2.15-.51-4.28-1.07-6.4-1.65-.65,1.76-1.39,3.48-2.18,5.14-2.49,5.25-8.98,17.01-15.22,18.22s-16.65-7.27-20.93-11.21c-1.35-1.25-2.68-2.56-3.94-3.95-1.74,1.33-3.49,2.64-5.28,3.91a73.5,73.5,0,0,1-8.55,5.44c-3.32,1.72-7.54,3.19-10.8.4a6.841,6.841,0,0,1-2.21-6.19c1.85-16.34,15.34-30.06,29.98-37.15A77.623,77.623,0,0,0,99.96,17.68l-2.58-2.05.72-3.21c1.93-8.57,11.45-12.7,19.52-12.4l3.02.11,1.42,2.67a120.9,120.9,0,0,1,9.32,22.1" fill="#3e2b56" fill-rule="evenodd"/>
    <path id="Path_670" data-name="Path 670" d="M87.63,67.4c2.04-18.05,20.02-30.95,32.72-35.38-3.71-6.44-9.45-12.32-17.13-18.44,1.08-4.79,7.01-8.58,14.2-8.31a109.41,109.41,0,0,1,10,25.13c13.89-1.54,36.18,3.78,45.7,20.41,3.45,6.03-17.73-.12-25.13-2.21-2.44,10.45-11.38,23.97-14.87,24.64s-16.84-8.52-23.01-17.3c-6.07,4.72-23.25,18.34-22.48,11.46" fill="#62bb46" fill-rule="evenodd"/>
    <path id="Path_671" data-name="Path 671" d="M172.54,31.71c5.89-4.03,12-6.27,19.35-7.95,2.88-.66,5.84-.83,8.38.96,2.99,2.11,3.6,5.69,4.01,9.07.92,7.73,2.12,15.43,3.09,23.14,4.39,2.12,8.85,4.18,13.09,6.55a80.155,80.155,0,0,1,14.41,10.41c2.17,1.94,3.75,4.4,3.43,7.44-.43,3.98-3.79,6.14-6.43,8.66q-5.4,5.16-10.81,10.31a60.253,60.253,0,0,1,3.65,6.63c1.69,3.81,2.39,8.05,3.02,12.14,1.25,8.04-3.81,12.32-11.52,11.6-12.63-1.18-25.27-2.22-37.94-2.92-35.78-1.96-70.48-.88-105.78,5.73-4.01.75-8.79.93-11.59-2.65-3.09-3.94-1.18-9.2.71-13.2,1.31-2.75,2.34-5.57,3.5-8.38a49.244,49.244,0,0,1,6.67-11.58c-4-5.18-8.28-10.07-12.77-14.89-.69-.74-1.58-1.4-2.34-2.07a9.433,9.433,0,0,1-3.32-5.08c-1.05-4.86,2.87-8.31,6.48-10.71a62.434,62.434,0,0,1,17.15-8.06c3.02-.91,6.09-1.66,9.15-2.44-.36-2.86-.67-5.72-1.01-8.58a57.665,57.665,0,0,0-1.3-7.87c-1.05-3.89-1.4-8.3,1.55-11.5,3.09-3.34,7.93-3.27,12.1-2.82,9,.99,15.89,1.72,23.77,4.97,3.68-5.49,7.11-11.13,10.89-16.56,3.92-5.64,10.96-6.32,16.24-2.27,7.27,5.58,17.64,13.97,24.17,21.92" fill="#3e2b56" fill-rule="evenodd"/>
    <path id="Path_672" data-name="Path 672" d="M193.04,28.78c-7.71,1.76-14.47,4.17-21.55,10.23-1.38,1.21-5.05,4.37-4.57,2.45l1.61-6.49c-5.95-7.46-16.01-15.49-23.29-21.08-2.49-1.91-6.36-2.49-8.87,1.13-4.41,6.35-7.06,10.88-10.8,16.44.98,2.78,5.16,10.25,2.93,8.34-10.68-9.16-17.81-9.49-31.58-11-7.02-.77-10.1.54-8.12,7.85,1.12,4.13,1.65,10.94,2.55,17.88,2.16.03,9.16,1,7.12,1.7-11,3.76-23.06,4.55-35.77,13-8.11,5.39-2.94,6.8.1,10.06a202.465,202.465,0,0,1,13.73,16.1c2.08-1.04,7.69-4.94,6.24-3.12-9.11,11.48-10.3,14.54-16.49,27.59-3.47,7.32-2.24,9.98,5.28,8.57,51.36-9.61,97.47-7.35,145.15-2.88,4.28.4,6.69-.96,5.95-5.68-2.62-16.86-12.57-23.57-12.37-23.55l7.07.42,10.97-10.46c3.81-3.64,6.96-5.11,3.13-8.53-13.46-12-35.77-18.86-35.64-18.91l6.27-2.63c-.77-5.75-1.89-13.28-2.9-21.8-.66-5.36-1.5-6.69-6.15-5.63" fill="#62bb46" fill-rule="evenodd"/>
    <path id="Path_673" data-name="Path 673" d="M145.68,43.87c15.83,0,33.16,12.65,46.02,32.47a125.72,125.72,0,0,1,19.7,67.4c0,28.15-17.12,46.16-39.03,54.03a80.556,80.556,0,0,1-53.38,0c-21.91-7.87-39.03-25.88-39.03-54.03a125.607,125.607,0,0,1,19.7-67.4c12.86-19.82,30.19-32.47,46.02-32.47" fill="#3e2b56"/>
    <path id="Path_674" data-name="Path 674" d="M198.12,172.05c.07-.11.13-.22.2-.32.27-.41.53-.83.78-1.25.12-.2.23-.4.35-.61.2-.34.39-.67.58-1.01.13-.23.25-.46.37-.69.17-.33.34-.65.51-.99.12-.24.24-.48.35-.72.16-.33.31-.67.47-1.01.11-.24.22-.49.33-.74.15-.35.3-.71.44-1.07.1-.24.19-.48.29-.72.15-.4.3-.8.44-1.21.07-.21.15-.41.22-.62.21-.61.4-1.24.59-1.87.02-.07.04-.15.06-.23.16-.56.32-1.13.46-1.7.06-.22.1-.45.16-.68.1-.43.2-.87.29-1.3.05-.26.1-.53.15-.79.08-.41.15-.82.22-1.24.05-.28.09-.56.13-.84.06-.41.12-.83.17-1.25.04-.28.07-.57.1-.86.05-.43.09-.87.13-1.31.02-.28.05-.56.07-.84.04-.49.06-.98.09-1.47.01-.24.03-.48.04-.72.03-.74.04-1.48.04-2.24,0-1.43-.03-2.85-.08-4.27-.02-.46-.05-.91-.07-1.37-.05-.96-.1-1.92-.17-2.88-.04-.53-.08-1.05-.13-1.58-.08-.89-.16-1.77-.26-2.66l-.18-1.59c-.11-.9-.23-1.79-.36-2.69-.07-.49-.14-.97-.21-1.46-.16-1.04-.35-2.08-.54-3.12-.06-.32-.11-.63-.17-.95-.26-1.34-.54-2.67-.83-3.98-.08-.35-.17-.7-.25-1.05-.23-.97-.46-1.93-.71-2.88-.13-.48-.26-.96-.39-1.43-.23-.82-.46-1.64-.7-2.45-.15-.5-.3-1-.45-1.49-.25-.79-.5-1.58-.76-2.37-.16-.48-.32-.96-.48-1.43-.29-.84-.59-1.66-.9-2.49-.15-.4-.29-.8-.44-1.2-.46-1.2-.94-2.39-1.43-3.56-.06-.15-.13-.3-.2-.45-.44-1.02-.88-2.04-1.35-3.04-.19-.41-.38-.81-.57-1.21-.35-.74-.7-1.48-1.07-2.2-.22-.44-.45-.88-.67-1.32-.18-.35-.36-.71-.54-1.06-.03-.06-.07-.11-.1-.16-1.52-2.85-3.12-5.61-4.81-8.21a98.219,98.219,0,0,0-5.99-8.28c-5.7-2.28-12.88-4.97-16.39-3.32-13.92,6.55-23.15,6.28-38.92,0-3.56-1.42-10.39,1.09-15.95,3.28a97.148,97.148,0,0,0-6.02,8.33,120.287,120.287,0,0,0-18.83,64.55c0,25.57,15.59,41.94,35.54,49.1a75.689,75.689,0,0,0,49.84,0c11.21-4.03,21.04-10.96,27.5-20.79h0C198.11,172.05,198.11,172.05,198.12,172.05Z" fill="#907dba" fill-rule="evenodd"/>
    <path id="Path_675" data-name="Path 675" d="M172.6,110.91a12.73,12.73,0,1,1-12.73,12.73,12.722,12.722,0,0,1,12.73-12.73m-53.84,0a12.73,12.73,0,1,1-12.72,12.73A12.731,12.731,0,0,1,118.76,110.91Z" fill="#3e2b56" fill-rule="evenodd"/>
    <path id="Path_676" data-name="Path 676" d="M122.83,114.48a3.47,3.47,0,1,1-3.47,3.47,3.472,3.472,0,0,1,3.47-3.47" fill="#fff" fill-rule="evenodd"/>
    <path id="Path_677" data-name="Path 677" d="M176.96,114.48a3.47,3.47,0,1,1-3.47,3.47,3.472,3.472,0,0,1,3.47-3.47" fill="#fff" fill-rule="evenodd"/>
    <path id="Path_678" data-name="Path 678" d="M101.57,67.57c5.05-12.14,23.38-21.85,36.61-24.01l15.53-1.59c13.51,2.16,30.24,13.55,35.68,25.6,2.26,5-17.75-8.69-24.45-5.29-13.92,7.07-23.14,6.78-38.92,0-6.99-3-26.55,10.32-24.45,5.29" fill="#62bb46" fill-rule="evenodd"/>
    <path id="Path_679" data-name="Path 679" d="M174.08,144.97a2.673,2.673,0,0,1,5.02,1.84,35.629,35.629,0,0,1-66.84,0,2.673,2.673,0,0,1,5.02-1.84,30.277,30.277,0,0,0,56.8,0" fill="#3e2b56"/>
    <g id="Group_624" data-name="Group 624">
      <g id="Group_622" data-name="Group 622">
        <path id="Path_680" data-name="Path 680" d="M296.94,235.91a3.91,3.91,0,1,1,3.91-3.91A3.909,3.909,0,0,1,296.94,235.91Zm0-7.03a3.12,3.12,0,1,0,3.12,3.12A3.124,3.124,0,0,0,296.94,228.88Z" fill="#fff"/>
      </g>
      <g id="Group_623" data-name="Group 623">
        <path id="Path_681" data-name="Path 681" d="M296.72,231.68a.661.661,0,0,0,.47-.13.608.608,0,0,0,0-.8.736.736,0,0,0-.47-.12h-.44v1.05h.44m-.44.73v1.55h-1.06v-4.09h1.61a2.035,2.035,0,0,1,1.18.27.982.982,0,0,1,.38.86,1.105,1.105,0,0,1-.19.67,1.147,1.147,0,0,1-.59.38.828.828,0,0,1,.39.23,2.018,2.018,0,0,1,.35.53l.58,1.16h-1.12l-.5-1.02a1.061,1.061,0,0,0-.31-.42.645.645,0,0,0-.41-.12h-.31" fill="#fff"/>
      </g>
    </g>
  </g>
</svg>
